<svg width="18" height="14" viewBox="0 0 18 14" fill="none" xmlns="http://www.w3.org/2000/svg">
<path d="M13.4224 8.54151C13.4224 7.24702 12.9081 6.00555 11.9928 5.09022C11.0775 4.17488 9.836 3.66064 8.54151 3.66064C7.24703 3.66064 6.00556 4.17488 5.09022 5.09022C4.17488 6.00555 3.96094 7.24702 3.96094 8.54151H8.54151H13.4224Z" fill="white"/>
<ellipse cx="13.6162" cy="3.81316" rx="3.00231" ry="2.46388" transform="rotate(39.4739 13.6162 3.81316)" fill="white"/>
<ellipse rx="3.00231" ry="2.46388" transform="matrix(-0.771914 0.635727 0.635727 0.771914 3.88384 3.81055)" fill="white"/>
<circle cx="6.10107" cy="12.2021" r="1.22022" fill="white"/>
<path d="M5.49092 12.2022L5.13352 11.8448C4.58107 11.2923 4.27075 10.543 4.27082 9.76173V9.76173L4.27082 8.54151" stroke="white" stroke-width="0.5"/>
</svg>
